# xmcd
#
# Track frame offsets: 
#        150
#        22050
#        55475
#        71470
#        83712
#        94937
#        128875
#        147150
#        164775
#        187537
#
# Disc length: 2673 seconds
#
# Revision: 6
# Processed by: cddbd v1.5.2PL0 Copyright (c) Steve Scherf et al.
# Submitted via: ExactAudioCopy v1.0b2
#
DISCID=880a6f0a
DTITLE=BB King - Live at the Apollo
DYEAR=1991
DGENRE=Blues
TTITLE0=When Love Comes to Town
TTITLE1=Sweet Sixteen
TTITLE2=The Thrill Is Gone
TTITLE3=Ain't Nobody's Bizness
TTITLE4=Paying the Cost to Be the Boss
TTITLE5=All Over Again
TTITLE6=Nightlife
TTITLE7=Since I Met You Baby
TTITLE8=Guess Who
TTITLE9=Peace to the World
EXTD=YEAR: 1991 ID3G: 0
EXTT0=
EXTT1=
EXTT2=
EXTT3=
EXTT4=
EXTT5=
EXTT6=
EXTT7=
EXTT8=
EXTT9=
PLAYORDER=
